<?xml version="1.0" encoding="utf-8"?>
<!-- Generator: Adobe Illustrator 23.1.1, SVG Export Plug-In . SVG Version: 6.00 Build 0)  -->
<svg version="1.1" id="Capa_1" xmlns="http://www.w3.org/2000/svg" xmlns:xlink="http://www.w3.org/1999/xlink" x="0px" y="0px"
	 viewBox="0 0 130 151" style="enable-background:new 0 0 130 151;" xml:space="preserve">
<style type="text/css">
	.st0{fill:#013171;stroke:#013171;stroke-width:1.0583;stroke-miterlimit:10;}
	.st1{fill:#FFFFFF;}
	.st2{fill-rule:evenodd;clip-rule:evenodd;fill:#FFFFFF;}
	.st3{fill:none;stroke:#FFFFFF;stroke-width:2.1166;stroke-miterlimit:10;}
	.st4{fill:#BA3668;}
</style>
<g>
	<path class="st0" d="M58.3,136.2c-1.6-1.7-4.6-3.3-8.6-4.4c-3.5-1-6.4-1.3-6.5-1.3l0,0c-3.6-0.4-10.1-1.1-10.2-1.1l-0.4,0l-0.4-0.1
		c-5.5-1.2-9.3-3.9-10.8-5.1c-5.9-4.1-7.6-10.8-7.3-15.3V14.6h99.6v94.3c0.4,4.5-1.3,11.1-7.3,15.3c-1.5,1.2-5.3,3.9-10.8,5.1
		l-0.4,0.1l-0.4,0c-0.1,0-6.6,0.7-10.2,1.1l-0.1,0c-2.8,0.3-11.5,2-15,5.8l-5.7,6.7L58.3,136.2z"/>
	<polygon class="st1" points="79.8,93.7 64.7,82.8 49.7,93.7 55.4,76 40.3,65 59,65 64.7,47.3 70.5,65 89.1,65 74,76 	"/>
	<path class="st2" d="M36.4,73c0-15.6,12.6-28.2,28.2-28.2c15.6,0,28.2,12.6,28.2,28.2c0,15.6-12.6,28.2-28.2,28.2
		C49,101.1,36.4,88.5,36.4,73z M30.8,73c0-18.7,15.1-33.8,33.8-33.8c18.7,0,33.8,15.1,33.8,33.8c0,18.7-15.1,33.8-33.8,33.8
		C45.9,106.8,30.8,91.6,30.8,73z"/>
	<path class="st3" d="M60,134.7c-1.9-2.1-5.2-3.8-9.6-5.1c-3.7-1.1-6.8-1.4-6.9-1.4l0,0c-3.6-0.4-10.1-1.1-10.2-1.1l-0.3,0l-0.3-0.1
		c-5.2-1.1-8.8-3.8-9.9-4.7c-5.6-3.9-6.7-10-6.4-13.4V16.9h95.1V109c0.3,3.4-0.8,9.5-6.4,13.4c-1.1,0.9-4.7,3.6-9.9,4.7l-0.3,0.1
		l-0.3,0c-0.1,0-6.6,0.7-10.2,1.1l-0.1,0c-3.2,0.3-12.5,2.1-16.4,6.5l-4,4.7L60,134.7z"/>
	<path class="st3" d="M21.7,22.1v87.2c0,0-0.7,5.6,4.3,8.9c0,0,3,2.7,7.8,3.7c0,0,6.6,0.7,10.2,1.1c0,0,13.7,1.4,19.9,8.3l0.1,0.1
		l0.1-0.1C70.3,124.3,84,123,84,123c3.7-0.4,10.2-1.1,10.2-1.1c4.8-1,7.8-3.7,7.8-3.7c5-3.3,4.3-8.9,4.3-8.9V22.1H21.7z"/>
	<g>
		<path class="st1" d="M39.8,40.5V30.2v-2.4c0-1.2-1-2.2-2.2-2.2h-5.9c-1.2,0-2.2,1-2.2,2.2v2.8c0,0,0,21.4,0,22.7
			c0,1.3,0.9,1.2,0.9,1.2c0.7,0,1.2-1,1.2-1l2.9-4.4V42l1.3,0v4.1c0,1.8,1.1,0.7,1.1,0.7l2.1-1.9c1-1,0.8-2.8,0.8-2.8L39.8,40.5z
			 M35.7,37h-1.4l0-6.2c0-0.4,0.3-0.7,0.7-0.7c0.4,0,0.7,0.3,0.7,0.7V37z"/>
		<path class="st1" d="M49.7,29.2c0-3.5-3.6-3.7-3.6-3.7h-3.3h-1.4c-0.4,0-0.7,0.3-0.7,0.7v16.2c0,0.4,0.3,0.6,0.7,0.4l1.3-0.6
			l5.1-2.8c2.1-1.3,2-3.3,2-3.3V29.2z M46.1,35.3c0,1.2-1.8,1.4-1.8,1.4v-6.7h0.6c1.2,0,1.2,1.6,1.2,1.6V35.3z"/>
		<path class="st1" d="M58.8,25.5h-3.5v6v0.7c0,0,0,0.2-0.4,0.2h-0.4c-0.4,0-0.4-0.2-0.4-0.2v-0.7v-6h-3.5v10c0,0-0.2,2.1,3.5,2.1
			h1.1c3.8,0,3.5-2.1,3.5-2.1V25.5z"/>
		<path class="st1" d="M65.6,25h-2.3c-3.6,0-3.6,3.1-3.6,3.1v7.9h3.6v-0.5c0-0.8,0.8-0.8,0.8-0.8h0.8c0,0,0.8,0,0.8,0.8v0.5h3.6
			v-7.9C69.3,28.1,69.2,25,65.6,25z M65.1,31h-0.5h-0.3h-0.5v-1.6c0,0,0.1-0.2,0.5-0.2h0.3c0.4,0,0.5,0.2,0.5,0.2V31z"/>
		<path class="st1" d="M89.6,28.5c0,0,0-3.1-3.6-3.1h-2.3c-3.6,0-3.6,3.1-3.6,3.1l0,11l2.6,1.4c1,0.5,1-0.5,1-0.5v-2.1
			c0,0,0-0.2,0-0.5c0-0.3,0.3-0.5,0.7-0.5h0.9c0.4,0,0.7,0.2,0.7,0.5c0,0.3,0,0.5,0,0.5v4.7l2.3,1.8c0.5,0.4,0.8,0.2,0.8,0.2
			c0.5-0.2,0.5-0.9,0.5-0.9V28.5z M85.5,32.2H85h-0.3h-0.5v-1.6c0,0,0.1-0.2,0.5-0.2H85c0.4,0,0.5,0.2,0.5,0.2V32.2z"/>
		<path class="st1" d="M95.1,32.9c-0.4-0.5-0.3-1.6-0.3-1.6c0-0.6,0.7-0.6,0.7-0.6c0.7,0,0.7,0.6,0.7,0.6V33c0,0.9,0.8,0.9,0.8,0.9
			h2.3c0.9,0,0.9-1.4,0.9-1.4v-3.9c0,0,0-3.1-3.6-3.1h-2.3c-3.6,0-3.6,3.1-3.6,3.1v4.8c0.1,1.5,1.4,2.7,1.4,2.7l2.8,2.4
			c1.7,1.4,1.7,3,1.7,3v1.9c0,1.1-0.8,1-0.8,1c-0.8,0-1-1.9-1-1.9l0-2.4c0-0.7-0.5-1.1-0.5-1.1l-2-1.7c-0.6-0.5-0.9-0.4-0.9-0.4
			c-0.6,0-0.6,0.7-0.6,0.7v7.3c0,1.1,1.5,2.7,1.5,2.7l3.3,3.5c1.3,1.4,2.4,1.4,2.4,1.4c1.9,0.2,2.1-3.8,2.1-3.8v-8.3
			c0-2.6-1.8-4.4-1.8-4.4L95.1,32.9z"/>
		<path class="st1" d="M79.2,26.3c0-0.4-0.3-0.7-0.7-0.7h-2.7c-0.4,0-0.7,0.3-0.7,0.7v1.1v1.3c0,0-0.3,0.2-0.5-0.2
			c-0.2-0.4-1-2.3-1-2.3s-0.3-0.8-1.2-0.8h-1.1c0,0-0.9-0.1-0.9,0.9c0,1,0,9.3,0,9.3s0,0.6,0.5,0.8l2.6,0.8c0,0,0.6,0.2,0.6-0.4v-1
			c0,0,0-0.3,0.6-0.3c0,0,0.4,0.1,0.6,0.6l0.3,1c0,0,0.1,0.3,0.4,0.5l2.5,1.2c0,0,0.9,0.2,0.9-0.7c0.1-0.9,0-8.8,0-8.8V26.3z"/>
	</g>
	<path class="st1" d="M64.2,120.6v1.2c0,0.4,0.3,0.7,0.7,0.7l3.1-0.2c0.4,0,0.7-0.4,0.7-0.8v-0.9v-9v-1.5c0-0.4-0.3-0.7-0.7-0.7
		l-3.1,0.1c-0.4,0-0.7,0.4-0.7,0.8v1.5V120.6z"/>
	<path class="st1" d="M69.8,120.2v1.4c0,0.4,0.3,0.7,0.7,0.7c0,0,5.2-0.5,9.2-2c0,0,0.6-0.2,0.6-1.2v-3c0,0-0.1-1.3-1.3-0.8
		l-2.4,0.8c0,0-1.6,0.5-1.6-1.2l0-3.8V109c0-0.4-0.3-0.7-0.7-0.6l-3.8,0.8c-0.4,0.1-0.7,0.5-0.7,0.9v1.6V120.2z"/>
	<path class="st4" d="M90.1,114"/>
	<path class="st1" d="M81.3,117v2c0,0.4,0.3,0.6,0.7,0.5c0,0,3.3-1,7.5-3.5c0,0,0.9-0.5,0.9-1v-2.5c0,0,0-1.1-1-0.4l-3.3,1.9
		c0,0-0.2,0-0.2-0.3v-0.5c0,0-0.1-0.2,0.4-0.5l2.9-1.7c0,0,0.7-0.3,0.7-1.2v-1.8c0,0,0.1-1.2-0.8-0.7l-2.7,1.7c0,0-0.5,0.3-0.5-0.2
		v-0.9l3.4-2.3c0,0,0.5-0.3,0.5-1v-1.6v-2.2c0-0.4-0.3-0.6-0.6-0.3l-7.3,4.8c-0.3,0.2-0.6,0.7-0.6,1.2v2.1V117z"/>
	<path class="st1" d="M63.2,120.8l0-8.9v-1.5c0-0.4-0.3-0.8-0.7-0.8l-3.1-0.3c-0.4,0-0.7,0.3-0.7,0.7v1.6l0,2l-2.2-0.5v-2.4v-1.2
		c0-0.4-0.3-0.8-0.7-1l-3.5-1c-0.4-0.1-0.7,0.1-0.7,0.5v2.9l-0.1,7.4v1.5c0,0.4,0.3,0.8,0.7,0.9l3.6,0.8c0.4,0.1,0.7-0.2,0.7-0.6v-1
		l0-3.2l2.3,0.4l0,3v1.1c0,0.4,0.3,0.8,0.7,0.8l3.1,0.2c0.4,0,0.7-0.3,0.7-0.7V120.8"/>
	<path class="st1" d="M47.7,112l1.4,0.6c0,0,1.3,0.6,1.3-1.2v-2.1c0,0,0.3-1.8-1.2-2.7l-5.9-3.4c0,0-2.7-1.6-3.9-0.8
		c0,0-1.2,0.7-1.2,2.4v7.2c0,0-0.1,3.1,3.9,5.2l3.8,1.6c0,0,4.2,1.7,4.6-2v-1.5c0,0,0.2-1.2-1.2-1.8l-2.7-1c0,0-0.7-0.2-0.7,0.8v0.7
		c0,0,0,1-0.7,0.7l-1.3-0.6c0,0-0.6-0.3-0.6-1.4v-3.2c0,0-0.1-1.2,0.8-0.8l0.8,0.4c0,0,0.9,0.4,0.9,1.2c0,0-0.1,0.6,0.7,1L47.7,112z
		"/>
</g>
</svg>
