<?xml version="1.0" encoding="utf-8"?>
<!-- Generator: Adobe Illustrator 23.1.1, SVG Export Plug-In . SVG Version: 6.00 Build 0)  -->
<svg version="1.1" id="Capa_1" xmlns="http://www.w3.org/2000/svg" xmlns:xlink="http://www.w3.org/1999/xlink" x="0px" y="0px"
	 viewBox="0 0 604 233" style="enable-background:new 0 0 604 233;" xml:space="preserve">
<style type="text/css">
	.st0{fill:#FFFFFF;stroke:#211915;stroke-miterlimit:3.8637;}
	.st1{fill-rule:evenodd;clip-rule:evenodd;fill:#C22A22;}
	.st2{fill-rule:evenodd;clip-rule:evenodd;fill:#013171;}
	.st3{fill-rule:evenodd;clip-rule:evenodd;fill:none;stroke:#C22A22;stroke-width:3.6065;stroke-miterlimit:3.8637;}
	.st4{fill:#013171;stroke:#013171;stroke-width:1.0583;stroke-miterlimit:10;}
	.st5{fill:#FFFFFF;}
	.st6{fill-rule:evenodd;clip-rule:evenodd;fill:#FFFFFF;}
	.st7{fill:none;stroke:#FFFFFF;stroke-width:2.1166;stroke-miterlimit:10;}
	.st8{fill:#BA3668;}
</style>
<path class="st0" d="M294.71,124.96"/>
<g>
	<path class="st1" d="M316.26,91.61c-1.82,0-3.5-0.27-5.05-0.81c-1.54-0.54-2.86-1.34-3.96-2.4c-1.11-1.06-1.97-2.39-2.58-3.98
		c-0.6-1.59-0.9-3.43-0.9-5.51c0-1.94,0.29-3.7,0.87-5.28c0.58-1.58,1.43-2.93,2.53-4.06c1.06-1.09,2.38-1.93,3.95-2.52
		c1.58-0.59,3.3-0.89,5.17-0.89c1.03,0,1.96,0.06,2.78,0.18c0.83,0.11,1.6,0.26,2.3,0.44c0.73,0.21,1.4,0.44,1.99,0.71
		c0.6,0.25,1.13,0.49,1.58,0.71v5.94h-0.72c-0.31-0.26-0.7-0.58-1.17-0.94c-0.46-0.36-0.99-0.72-1.58-1.07
		c-0.6-0.35-1.26-0.65-1.96-0.89c-0.7-0.24-1.45-0.36-2.25-0.36c-0.89,0-1.73,0.14-2.53,0.43c-0.8,0.27-1.54,0.74-2.22,1.38
		c-0.65,0.62-1.17,1.45-1.58,2.48c-0.39,1.03-0.59,2.28-0.59,3.75c0,1.54,0.21,2.82,0.64,3.85c0.44,1.03,0.99,1.84,1.64,2.43
		c0.67,0.6,1.42,1.04,2.24,1.3c0.82,0.25,1.63,0.38,2.43,0.38c0.77,0,1.52-0.12,2.27-0.35c0.76-0.23,1.45-0.54,2.09-0.94
		c0.54-0.32,1.04-0.66,1.5-1.02c0.46-0.36,0.84-0.67,1.14-0.94h0.66v5.86c-0.62,0.27-1.2,0.53-1.76,0.77
		c-0.56,0.24-1.15,0.45-1.76,0.62c-0.8,0.23-1.55,0.41-2.25,0.53C318.45,91.55,317.48,91.61,316.26,91.61z"/>
	<polygon class="st1" points="351.53,91.13 345.21,91.13 345.21,80.34 335.88,80.34 335.88,91.13 329.56,91.13 329.56,66.64 
		335.88,66.64 335.88,75.6 345.21,75.6 345.21,66.64 351.53,66.64 	"/>
	<polygon class="st1" points="365.01,91.13 358.69,91.13 358.69,86.79 358.69,86.79 358.69,70.98 358.69,70.98 358.69,66.64 
		365.01,66.64 365.01,70.98 365.01,70.98 365.01,86.79 365.01,86.79 	"/>
	<polygon class="st1" points="389.84,91.13 372.17,91.13 372.17,66.64 378.49,66.64 378.49,86.39 389.84,86.39 	"/>
	<polygon class="st1" points="411.36,91.13 393.64,91.13 393.64,66.64 411.36,66.64 411.36,71.37 399.92,71.37 399.92,75.6 
		410.54,75.6 410.54,80.34 399.92,80.34 399.92,86.39 411.36,86.39 	"/>
</g>
<g>
	<path class="st2" d="M97.83,147.53H84.98l-3.33-9.74H63.78l-3.33,9.74H47.93l17.8-48.18h14.3L97.83,147.53z M78.64,128.95
		l-5.92-17.28l-5.92,17.28H78.64z"/>
	<path class="st2" d="M150.28,123.48c0,4.49-1.02,8.51-3.07,12.07c-2.05,3.54-4.64,6.26-7.77,8.15c-2.35,1.42-4.93,2.42-7.73,2.98
		c-2.81,0.56-6.13,0.84-9.97,0.84h-16.99V99.34h17.47c3.93,0,7.31,0.33,10.16,1c2.85,0.65,5.24,1.58,7.18,2.78
		c3.32,2.03,5.93,4.77,7.83,8.22C149.32,114.78,150.28,118.82,150.28,123.48z M137.44,123.39c0-3.17-0.58-5.88-1.75-8.12
		c-1.14-2.27-2.97-4.03-5.47-5.31c-1.27-0.62-2.58-1.05-3.92-1.26c-1.32-0.24-3.31-0.35-5.99-0.36h-3.14v30.16h3.14
		c2.95,0,5.12-0.13,6.5-0.39c1.38-0.28,2.73-0.78,4.04-1.49c2.27-1.29,3.93-3.02,4.98-5.18
		C136.91,129.27,137.43,126.58,137.44,123.39z"/>
	<path class="st2" d="M201.96,130.09c0,5.95-1.81,10.52-5.44,13.69c-3.62,3.17-8.96,4.76-16.02,4.76c-7.05,0-12.39-1.59-16.02-4.76
		c-3.6-3.17-5.4-7.72-5.4-13.66V99.34h12.49v30.06c0,3.34,0.7,5.84,2.1,7.48c1.4,1.64,3.68,2.46,6.83,2.46
		c3.11,0,5.37-0.79,6.8-2.36c1.44-1.57,2.17-4.1,2.17-7.57V99.34h12.49V130.09z"/>
	<path class="st2" d="M258.11,147.53h-12.85l-3.33-9.74h-17.86l-3.33,9.74h-12.52L226,99.34h14.3L258.11,147.53z M238.92,128.95
		l-5.92-17.28l-5.92,17.28H238.92z"/>
	<polygon class="st2" points="308.84,147.53 296.87,147.53 276.42,114.46 276.42,147.53 265.03,147.53 265.03,99.34 279.88,99.34 
		297.46,126.95 297.46,99.34 308.84,99.34 	"/>
	<path class="st2" d="M365.67,147.53h-12.85l-3.33-9.74h-17.86l-3.33,9.74h-12.52l17.8-48.18h14.3L365.67,147.53z M346.48,128.95
		l-5.92-17.28l-5.92,17.28H346.48z"/>
	<path class="st2" d="M411.17,132.38c0,4.75-2.02,8.61-6.05,11.58c-4.01,2.96-9.47,4.43-16.37,4.43c-3.99,0-7.48-0.35-10.45-1.04
		c-2.96-0.71-5.73-1.61-8.32-2.69v-11.55h1.36c2.57,2.05,5.44,3.62,8.61,4.72c3.19,1.1,6.26,1.65,9.19,1.65
		c0.75,0,1.75-0.06,2.98-0.19c1.23-0.13,2.23-0.34,3.01-0.65c0.95-0.39,1.72-0.87,2.33-1.46c0.62-0.58,0.94-1.44,0.94-2.59
		c0-1.06-0.45-1.96-1.36-2.72c-0.88-0.78-2.19-1.37-3.92-1.78c-1.81-0.43-3.73-0.83-5.76-1.2c-2.01-0.39-3.89-0.87-5.66-1.46
		c-4.06-1.32-6.98-3.1-8.77-5.34c-1.77-2.27-2.65-5.07-2.65-8.41c0-4.49,2.01-8.14,6.02-10.97c4.03-2.85,9.21-4.27,15.53-4.27
		c3.17,0,6.3,0.31,9.38,0.94c3.11,0.6,5.79,1.37,8.06,2.3v11.1h-1.33c-1.94-1.55-4.33-2.85-7.15-3.88
		c-2.81-1.06-5.67-1.58-8.61-1.59c-1.04,0-2.07,0.08-3.11,0.23c-1.01,0.13-2,0.39-2.94,0.78c-0.84,0.32-1.56,0.82-2.17,1.49
		c-0.6,0.65-0.91,1.39-0.91,2.23c0,1.27,0.49,2.25,1.46,2.94c0.97,0.67,2.8,1.28,5.5,1.84c1.77,0.37,3.46,0.72,5.08,1.07
		c1.64,0.35,3.4,0.82,5.27,1.42c3.69,1.21,6.41,2.86,8.16,4.95C410.28,126.36,411.17,129.06,411.17,132.38z"/>
</g>
<g>
	<path class="st1" d="M244.58,184.8c-1.82,0-3.5-0.27-5.05-0.81c-1.54-0.54-2.86-1.34-3.96-2.4c-1.11-1.06-1.97-2.39-2.58-3.98
		c-0.6-1.59-0.9-3.43-0.9-5.51c0-1.94,0.29-3.7,0.87-5.28c0.58-1.58,1.43-2.93,2.53-4.06c1.06-1.09,2.38-1.92,3.95-2.52
		c1.58-0.59,3.3-0.89,5.17-0.89c1.03,0,1.96,0.06,2.78,0.18c0.83,0.11,1.6,0.26,2.3,0.44c0.73,0.21,1.4,0.44,1.99,0.71
		c0.6,0.25,1.13,0.49,1.58,0.71v5.94h-0.72c-0.31-0.26-0.7-0.58-1.17-0.94c-0.46-0.36-0.99-0.72-1.58-1.07
		c-0.6-0.35-1.26-0.65-1.96-0.89c-0.7-0.24-1.45-0.36-2.25-0.36c-0.89,0-1.73,0.14-2.53,0.43c-0.8,0.27-1.54,0.74-2.22,1.38
		c-0.65,0.63-1.17,1.45-1.58,2.48c-0.4,1.03-0.59,2.28-0.59,3.75c0,1.54,0.21,2.82,0.64,3.85c0.44,1.03,0.99,1.84,1.65,2.44
		c0.67,0.6,1.41,1.04,2.24,1.3c0.82,0.25,1.63,0.38,2.44,0.38c0.77,0,1.52-0.12,2.27-0.35c0.76-0.23,1.45-0.54,2.09-0.94
		c0.54-0.32,1.04-0.66,1.5-1.02c0.46-0.36,0.84-0.67,1.14-0.94h0.66v5.86c-0.61,0.27-1.2,0.53-1.76,0.77
		c-0.56,0.24-1.15,0.45-1.76,0.62c-0.8,0.23-1.55,0.41-2.25,0.53C246.77,184.74,245.8,184.8,244.58,184.8z"/>
	<path class="st1" d="M279.34,175.46c0,3.03-0.92,5.35-2.76,6.96c-1.84,1.61-4.56,2.42-8.14,2.42c-3.59,0-6.3-0.81-8.14-2.42
		c-1.83-1.61-2.75-3.93-2.75-6.94v-15.65h6.35v15.28c0,1.7,0.36,2.97,1.07,3.8c0.71,0.83,1.87,1.25,3.47,1.25
		c1.58,0,2.73-0.4,3.46-1.2c0.73-0.8,1.1-2.08,1.1-3.85v-15.28h6.35V175.46z"/>
	<path class="st1" d="M304.85,176.63c0,2.41-1.03,4.38-3.08,5.89c-2.04,1.5-4.82,2.25-8.32,2.25c-2.03,0-3.8-0.18-5.31-0.53
		c-1.5-0.36-2.91-0.82-4.23-1.37v-5.87h0.69c1.31,1.04,2.76,1.84,4.38,2.4c1.62,0.56,3.18,0.84,4.67,0.84c0.38,0,0.89-0.03,1.51-0.1
		c0.62-0.07,1.13-0.18,1.53-0.33c0.48-0.2,0.88-0.44,1.18-0.74c0.32-0.3,0.48-0.73,0.48-1.32c0-0.54-0.23-1-0.69-1.38
		c-0.45-0.4-1.11-0.7-1.99-0.9c-0.92-0.22-1.9-0.42-2.93-0.61c-1.02-0.2-1.98-0.44-2.88-0.74c-2.06-0.67-3.55-1.57-4.46-2.71
		c-0.9-1.15-1.35-2.58-1.35-4.28c0-2.28,1.02-4.14,3.06-5.58c2.05-1.45,4.68-2.17,7.9-2.17c1.61,0,3.2,0.16,4.77,0.48
		c1.58,0.31,2.95,0.7,4.1,1.17v5.64h-0.67c-0.99-0.79-2.2-1.45-3.63-1.97c-1.43-0.54-2.88-0.81-4.38-0.81
		c-0.53,0-1.05,0.04-1.58,0.11c-0.52,0.07-1.02,0.2-1.5,0.4c-0.43,0.16-0.79,0.42-1.1,0.76c-0.31,0.33-0.46,0.71-0.46,1.13
		c0,0.65,0.25,1.15,0.74,1.5c0.49,0.34,1.43,0.65,2.8,0.94c0.9,0.19,1.76,0.37,2.58,0.54c0.83,0.18,1.73,0.42,2.68,0.72
		c1.88,0.61,3.26,1.45,4.15,2.52C304.4,173.57,304.85,174.94,304.85,176.63z"/>
	<polygon class="st1" points="328.34,164.57 320.7,164.57 320.7,184.33 314.38,184.33 314.38,164.57 306.73,164.57 306.73,159.83 
		328.34,159.83 	"/>
	<path class="st1" d="M355.97,172.09c0,3.9-1.12,7.01-3.36,9.31c-2.24,2.29-5.33,3.44-9.28,3.44c-3.94,0-7.02-1.15-9.26-3.44
		c-2.24-2.3-3.36-5.41-3.36-9.31c0-3.94,1.12-7.05,3.36-9.33c2.24-2.29,5.32-3.44,9.26-3.44c3.93,0,7.01,1.15,9.26,3.44
		C354.84,165.04,355.96,168.15,355.97,172.09z M347.59,178.29c0.61-0.75,1.07-1.62,1.37-2.63c0.3-1.02,0.44-2.22,0.44-3.59
		c0-1.47-0.17-2.72-0.51-3.75c-0.34-1.03-0.79-1.86-1.33-2.5c-0.56-0.66-1.21-1.13-1.94-1.43c-0.72-0.3-1.48-0.44-2.27-0.44
		c-0.8,0-1.56,0.14-2.27,0.43c-0.7,0.29-1.35,0.76-1.94,1.41c-0.55,0.61-1,1.46-1.35,2.55c-0.34,1.08-0.51,2.33-0.51,3.75
		c0,1.46,0.17,2.7,0.49,3.73c0.34,1.02,0.78,1.85,1.33,2.5c0.55,0.65,1.19,1.12,1.92,1.43c0.74,0.31,1.51,0.46,2.32,0.46
		c0.81,0,1.58-0.15,2.32-0.46C346.4,179.44,347.04,178.95,347.59,178.29z"/>
	<polygon class="st1" points="386.47,184.33 380.18,184.33 380.18,167.93 375.64,178.57 371.28,178.57 366.74,167.93 366.74,184.33 
		360.79,184.33 360.79,159.83 368.12,159.83 373.63,172.12 379.13,159.83 386.47,159.83 	"/>
	<path class="st1" d="M412.33,176.63c0,2.41-1.03,4.38-3.08,5.89c-2.04,1.5-4.82,2.25-8.32,2.25c-2.03,0-3.8-0.18-5.31-0.53
		c-1.5-0.36-2.91-0.82-4.23-1.37v-5.87h0.69c1.3,1.04,2.76,1.84,4.38,2.4c1.62,0.56,3.18,0.84,4.67,0.84c0.38,0,0.89-0.03,1.51-0.1
		c0.62-0.07,1.13-0.18,1.53-0.33c0.48-0.2,0.88-0.44,1.18-0.74c0.32-0.3,0.48-0.73,0.48-1.32c0-0.54-0.23-1-0.69-1.38
		c-0.45-0.4-1.11-0.7-1.99-0.9c-0.92-0.22-1.9-0.42-2.93-0.61c-1.02-0.2-1.98-0.44-2.88-0.74c-2.06-0.67-3.55-1.57-4.46-2.71
		c-0.9-1.15-1.35-2.58-1.35-4.28c0-2.28,1.02-4.14,3.06-5.58c2.05-1.45,4.68-2.17,7.9-2.17c1.61,0,3.2,0.16,4.77,0.48
		c1.58,0.31,2.94,0.7,4.1,1.17v5.64h-0.67c-0.99-0.79-2.2-1.45-3.64-1.97c-1.43-0.54-2.88-0.81-4.38-0.81
		c-0.53,0-1.05,0.04-1.58,0.11c-0.51,0.07-1.01,0.2-1.5,0.4c-0.43,0.16-0.79,0.42-1.1,0.76c-0.31,0.33-0.46,0.71-0.46,1.13
		c0,0.65,0.25,1.15,0.74,1.5c0.49,0.34,1.43,0.65,2.8,0.94c0.9,0.19,1.76,0.37,2.58,0.54c0.83,0.18,1.73,0.42,2.68,0.72
		c1.88,0.61,3.26,1.45,4.15,2.52C411.88,173.57,412.33,174.94,412.33,176.63z"/>
</g>
<line class="st3" x1="425.03" y1="188.81" x2="425.03" y2="60.84"/>
<g>
	<path class="st4" d="M486.78,182.42c-1.57-1.71-4.61-3.29-8.55-4.44c-3.47-1.01-6.43-1.33-6.45-1.33l-0.05-0.01
		c-3.6-0.4-10.12-1.07-10.18-1.07l-0.4-0.04l-0.39-0.08c-5.48-1.17-9.31-3.88-10.76-5.06c-5.94-4.13-7.63-10.77-7.27-15.27v-94.3
		h99.55v94.3c0.35,4.5-1.34,11.14-7.27,15.27c-1.46,1.18-5.28,3.9-10.76,5.06l-0.39,0.08l-0.4,0.04c-0.06,0.01-6.59,0.68-10.18,1.07
		l-0.07,0.01c-2.79,0.29-11.5,1.96-15,5.77l-5.71,6.67L486.78,182.42z"/>
	<polygon class="st5" points="508.28,139.91 493.21,128.96 478.13,139.91 483.89,122.19 468.82,111.24 487.45,111.24 493.21,93.52 
		498.96,111.24 517.6,111.24 502.52,122.19 	"/>
	<path class="st6" d="M464.92,119.17c0-15.56,12.62-28.18,28.18-28.18c15.56,0,28.18,12.62,28.18,28.18
		c0,15.56-12.62,28.18-28.18,28.18C477.53,147.34,464.92,134.73,464.92,119.17z M459.3,119.17c0-18.67,15.13-33.8,33.8-33.8
		c18.67,0,33.8,15.13,33.8,33.8c0,18.67-15.13,33.8-33.8,33.8C474.43,152.96,459.3,137.83,459.3,119.17z"/>
	<path class="st7" d="M488.46,180.93c-1.87-2.05-5.19-3.82-9.61-5.11c-3.71-1.08-6.82-1.41-6.85-1.41l-0.05-0.01
		c-3.6-0.4-10.13-1.07-10.19-1.07l-0.28-0.03l-0.27-0.06c-5.18-1.1-8.77-3.75-9.88-4.66c-5.62-3.87-6.67-10.02-6.38-13.37V63.06
		h95.05v92.14c0.29,3.35-0.75,9.51-6.38,13.37c-1.11,0.91-4.7,3.56-9.88,4.66l-0.27,0.06l-0.28,0.03
		c-0.07,0.01-6.59,0.68-10.19,1.07l-0.06,0.01c-3.23,0.33-12.48,2.15-16.45,6.52l-4.02,4.7L488.46,180.93z"/>
	<path class="st7" d="M450.2,68.31v87.16c0,0-0.7,5.63,4.29,8.91c0,0,3.05,2.72,7.81,3.73c0,0,6.57,0.68,10.23,1.08
		c0,0,13.65,1.35,19.87,8.28l0.08,0.09l0.08-0.09c6.22-6.92,19.87-8.28,19.87-8.28c3.66-0.4,10.23-1.08,10.23-1.08
		c4.76-1.01,7.81-3.73,7.81-3.73c4.99-3.28,4.29-8.91,4.29-8.91V68.31H450.2z"/>
	<g>
		<path class="st5" d="M468.28,86.75V76.4v-2.42c0-1.24-1-2.25-2.22-2.25h-5.94c-1.22,0-2.22,1.01-2.22,2.25v2.77
			c0,0,0,21.4,0,22.71s0.88,1.21,0.88,1.21c0.72,0.01,1.23-0.96,1.23-0.96l2.88-4.38v-7.1l1.35,0.03v4.09
			c0,1.81,1.12,0.66,1.12,0.66l2.11-1.92c0.98-1.05,0.82-2.77,0.82-2.77L468.28,86.75z M464.23,83.19h-1.39l0.04-6.16
			c0-0.38,0.3-0.69,0.68-0.69c0.38,0,0.68,0.31,0.68,0.69V83.19z"/>
		<path class="st5" d="M478.23,75.41c0-3.54-3.64-3.73-3.64-3.73h-3.27h-1.4c-0.41,0-0.74,0.34-0.74,0.75v16.17
			c0,0.41,0.3,0.6,0.67,0.42l1.33-0.65l5.09-2.79c2.1-1.26,1.97-3.31,1.97-3.31V75.41z M474.59,81.51c0,1.2-1.79,1.44-1.79,1.44
			v-6.65h0.59c1.17,0,1.19,1.57,1.19,1.57V81.51z"/>
		<path class="st5" d="M487.32,71.69h-3.53v6v0.73c0,0,0.01,0.24-0.37,0.24h-0.35c-0.38,0-0.37-0.24-0.37-0.24v-0.73v-6h-3.53v9.95
			c0,0-0.23,2.07,3.53,2.07h1.09c3.76,0,3.53-2.07,3.53-2.07V71.69z"/>
		<path class="st5" d="M494.13,71.26h-2.34c-3.57,0-3.61,3.08-3.61,3.08v7.93h3.61v-0.5c0-0.81,0.77-0.78,0.77-0.78h0.79
			c0,0,0.77-0.03,0.77,0.78v0.5h3.61v-7.93C497.74,74.33,497.7,71.26,494.13,71.26z M493.62,77.22h-0.48h-0.35h-0.48v-1.63
			c0,0,0.1-0.24,0.48-0.24h0.35c0.38,0,0.48,0.24,0.48,0.24V77.22z"/>
		<path class="st5" d="M518.11,74.74c0,0-0.04-3.08-3.61-3.08h-2.34c-3.57,0-3.61,3.08-3.61,3.08l0.01,11.03l2.65,1.38
			c0.97,0.53,0.96-0.48,0.96-0.48v-2.06c0,0,0-0.21,0-0.47c0-0.26,0.33-0.47,0.74-0.47h0.85c0.41,0,0.74,0.21,0.74,0.47
			c0,0.26,0,0.47,0,0.47v4.66l2.32,1.83c0.52,0.44,0.81,0.24,0.81,0.24c0.5-0.16,0.48-0.91,0.48-0.91V74.74z M513.99,78.42h-0.48
			h-0.35h-0.48v-1.63c0,0,0.1-0.24,0.48-0.24h0.35c0.38,0,0.48,0.24,0.48,0.24V78.42z"/>
		<path class="st5" d="M523.54,79.06c-0.44-0.48-0.35-1.63-0.35-1.63c0-0.59,0.65-0.57,0.65-0.57c0.72,0,0.72,0.63,0.72,0.63v1.69
			c0,0.86,0.81,0.88,0.81,0.88h2.33c0.95,0,0.92-1.4,0.92-1.4v-3.91c0,0-0.04-3.08-3.61-3.08h-2.34c-3.57,0-3.61,3.08-3.61,3.08
			v4.81c0.05,1.46,1.41,2.73,1.41,2.73l2.82,2.39c1.67,1.36,1.7,3.04,1.7,3.04v1.85c0,1.09-0.8,0.99-0.8,0.99
			c-0.81-0.01-1.04-1.88-1.04-1.88l-0.04-2.45c0-0.73-0.49-1.15-0.49-1.15l-1.97-1.67c-0.56-0.49-0.9-0.38-0.9-0.38
			c-0.63,0-0.55,0.66-0.55,0.66v7.32c0.04,1.1,1.53,2.68,1.53,2.68l3.32,3.45c1.31,1.38,2.4,1.44,2.4,1.44
			c1.88,0.18,2.12-3.85,2.12-3.85v-8.27c0-2.61-1.79-4.44-1.79-4.44L523.54,79.06z"/>
		<path class="st5" d="M507.68,72.48c0-0.41-0.33-0.75-0.74-0.75h-2.73c-0.41,0-0.74,0.34-0.74,0.75v1.14v1.32
			c0,0-0.3,0.25-0.5-0.16c-0.2-0.41-0.97-2.34-0.97-2.34s-0.28-0.77-1.2-0.77h-1.14c0,0-0.92-0.07-0.92,0.9c0,0.98,0,9.31,0,9.31
			s-0.01,0.59,0.48,0.79l2.56,0.78c0,0,0.59,0.17,0.59-0.39v-0.96c0,0-0.03-0.32,0.59-0.32c0,0,0.45,0.15,0.57,0.57l0.32,1.04
			c0,0,0.09,0.32,0.37,0.48l2.53,1.2c0,0,0.88,0.25,0.93-0.68c0.05-0.93,0-8.82,0-8.82V72.48z"/>
	</g>
	<path class="st5" d="M492.65,166.84v1.22c0,0.41,0.34,0.73,0.75,0.71l3.14-0.16c0.41-0.02,0.75-0.38,0.75-0.79v-0.86v-8.96v-1.5
		c0-0.41-0.34-0.74-0.75-0.72l-3.14,0.13c-0.41,0.02-0.75,0.37-0.75,0.78v1.47V166.84z"/>
	<path class="st5" d="M498.33,166.37v1.37c0,0.41,0.34,0.71,0.75,0.67c0,0,5.21-0.46,9.21-1.98c0,0,0.57-0.15,0.57-1.18v-2.97
		c0,0-0.06-1.26-1.3-0.83l-2.39,0.76c0,0-1.58,0.54-1.57-1.15l0.01-3.78v-2.07c0-0.41-0.33-0.68-0.73-0.6l-3.81,0.78
		c-0.4,0.08-0.73,0.49-0.73,0.9v1.59V166.37z"/>
	<path class="st8" d="M518.6,160.18"/>
	<path class="st5" d="M509.77,163.17v2.01c0,0.41,0.32,0.64,0.71,0.5c0,0,3.32-1,7.55-3.46c0,0,0.89-0.5,0.89-1.01v-2.5
		c0,0,0.03-1.09-1.01-0.43l-3.32,1.9c0,0-0.18,0.03-0.18-0.28v-0.49c0,0-0.08-0.22,0.35-0.46l2.88-1.71c0,0,0.68-0.32,0.68-1.21
		v-1.76c0,0,0.07-1.24-0.78-0.65l-2.65,1.73c0,0-0.48,0.3-0.48-0.16v-0.89l3.4-2.3c0,0,0.46-0.28,0.51-0.97v-1.65v-2.23
		c0-0.41-0.28-0.56-0.63-0.34l-7.29,4.79c-0.34,0.23-0.63,0.75-0.63,1.16v2.1V163.17z"/>
	<path class="st5" d="M491.68,167.06l0.05-8.89v-1.48c0-0.41-0.34-0.78-0.75-0.83l-3.14-0.32c-0.41-0.04-0.75,0.26-0.75,0.67v1.56
		l0,2.04l-2.23-0.5v-2.37v-1.16c0-0.41-0.32-0.84-0.72-0.96l-3.5-1.02c-0.4-0.12-0.72,0.13-0.72,0.54v2.94l-0.1,7.37v1.52
		c0,0.41,0.33,0.83,0.73,0.92l3.58,0.83c0.4,0.09,0.73-0.17,0.73-0.58v-0.97l-0.02-3.2l2.26,0.44l-0.01,2.98v1.05
		c0,0.41,0.34,0.78,0.75,0.81l3.09,0.24c0.41,0.03,0.75-0.28,0.75-0.69v-1"/>
	<path class="st5" d="M476.17,158.19l1.42,0.59c0,0,1.25,0.56,1.25-1.16v-2.13c0,0,0.32-1.82-1.2-2.68l-5.87-3.38
		c0,0-2.73-1.57-3.92-0.82c0,0-1.19,0.74-1.19,2.36v7.22c0,0-0.07,3.12,3.85,5.22l3.79,1.65c0,0,4.22,1.74,4.55-1.97v-1.52
		c0,0,0.25-1.18-1.22-1.76l-2.67-0.99c0,0-0.69-0.23-0.69,0.78v0.75c0,0-0.03,1-0.68,0.73l-1.27-0.62c0,0-0.59-0.29-0.57-1.35v-3.18
		c0,0-0.08-1.17,0.85-0.83l0.78,0.41c0,0,0.92,0.35,0.92,1.17c0,0-0.11,0.6,0.65,0.96L476.17,158.19z"/>
</g>
</svg>
